<mxfile host="Electron" modified="2023-11-05T22:32:57.772Z" agent="Mozilla/5.0 (Windows NT 10.0; Win64; x64) AppleWebKit/537.36 (KHTML, like Gecko) draw.io/22.0.3 Chrome/114.0.5735.289 Electron/25.8.4 Safari/537.36" etag="Pbs4ypAPBUUFMKDCiyRH" version="22.0.3" type="device">
  <diagram name="Page-1" id="h2DzXtw2UI70SdVKPNcq">
    <mxGraphModel dx="1219" dy="722" grid="1" gridSize="10" guides="1" tooltips="1" connect="1" arrows="1" fold="1" page="1" pageScale="1" pageWidth="850" pageHeight="1100" math="0" shadow="0">
      <root>
        <mxCell id="0" />
        <mxCell id="1" parent="0" />
        <mxCell id="cEwxzYOVinrBvs5fxJHt-1" value="End user" style="shape=umlActor;verticalLabelPosition=bottom;verticalAlign=top;html=1;" vertex="1" parent="1">
          <mxGeometry x="60" y="205" width="30" height="60" as="geometry" />
        </mxCell>
        <mxCell id="cEwxzYOVinrBvs5fxJHt-3" value="" style="rounded=0;whiteSpace=wrap;html=1;" vertex="1" parent="1">
          <mxGeometry x="150" y="120" width="420" height="450" as="geometry" />
        </mxCell>
        <mxCell id="cEwxzYOVinrBvs5fxJHt-14" style="edgeStyle=orthogonalEdgeStyle;rounded=0;orthogonalLoop=1;jettySize=auto;html=1;entryX=0.5;entryY=1;entryDx=0;entryDy=0;dashed=1;exitX=1;exitY=0;exitDx=0;exitDy=0;" edge="1" parent="1" source="cEwxzYOVinrBvs5fxJHt-4" target="cEwxzYOVinrBvs5fxJHt-6">
          <mxGeometry relative="1" as="geometry">
            <mxPoint x="495" y="315" as="sourcePoint" />
            <mxPoint x="450" y="240" as="targetPoint" />
            <Array as="points">
              <mxPoint x="485" y="299" />
            </Array>
          </mxGeometry>
        </mxCell>
        <mxCell id="cEwxzYOVinrBvs5fxJHt-15" value="&amp;lt;&amp;lt;include&amp;gt;&amp;gt;" style="edgeLabel;html=1;align=center;verticalAlign=middle;resizable=0;points=[];" vertex="1" connectable="0" parent="cEwxzYOVinrBvs5fxJHt-14">
          <mxGeometry x="-0.3524" relative="1" as="geometry">
            <mxPoint x="28" y="-40" as="offset" />
          </mxGeometry>
        </mxCell>
        <mxCell id="cEwxzYOVinrBvs5fxJHt-4" value="Execute Trades" style="ellipse;whiteSpace=wrap;html=1;" vertex="1" parent="1">
          <mxGeometry x="330" y="290" width="90" height="60" as="geometry" />
        </mxCell>
        <mxCell id="cEwxzYOVinrBvs5fxJHt-35" style="edgeStyle=orthogonalEdgeStyle;rounded=0;orthogonalLoop=1;jettySize=auto;html=1;entryX=0.5;entryY=0;entryDx=0;entryDy=0;dashed=1;" edge="1" parent="1" source="cEwxzYOVinrBvs5fxJHt-5" target="cEwxzYOVinrBvs5fxJHt-27">
          <mxGeometry relative="1" as="geometry">
            <Array as="points">
              <mxPoint x="375" y="160" />
            </Array>
          </mxGeometry>
        </mxCell>
        <mxCell id="cEwxzYOVinrBvs5fxJHt-36" value="&amp;lt;&amp;lt;extend&amp;gt;&amp;gt;" style="edgeLabel;html=1;align=center;verticalAlign=middle;resizable=0;points=[];" vertex="1" connectable="0" parent="cEwxzYOVinrBvs5fxJHt-35">
          <mxGeometry x="-0.2134" relative="1" as="geometry">
            <mxPoint y="-10" as="offset" />
          </mxGeometry>
        </mxCell>
        <mxCell id="cEwxzYOVinrBvs5fxJHt-5" value="Configure trading strategies" style="ellipse;whiteSpace=wrap;html=1;" vertex="1" parent="1">
          <mxGeometry x="180" y="145" width="100" height="60" as="geometry" />
        </mxCell>
        <mxCell id="cEwxzYOVinrBvs5fxJHt-6" value="Recieve notifications and alerts" style="ellipse;whiteSpace=wrap;html=1;" vertex="1" parent="1">
          <mxGeometry x="440" y="180" width="90" height="60" as="geometry" />
        </mxCell>
        <mxCell id="cEwxzYOVinrBvs5fxJHt-8" value="" style="endArrow=none;html=1;rounded=0;entryX=0;entryY=0.5;entryDx=0;entryDy=0;exitX=1;exitY=0.3333333333333333;exitDx=0;exitDy=0;exitPerimeter=0;" edge="1" parent="1" source="cEwxzYOVinrBvs5fxJHt-1" target="cEwxzYOVinrBvs5fxJHt-4">
          <mxGeometry width="50" height="50" relative="1" as="geometry">
            <mxPoint x="100" y="225" as="sourcePoint" />
            <mxPoint x="150" y="175" as="targetPoint" />
          </mxGeometry>
        </mxCell>
        <mxCell id="cEwxzYOVinrBvs5fxJHt-10" value="" style="endArrow=none;html=1;rounded=0;entryX=0;entryY=0.5;entryDx=0;entryDy=0;exitX=1;exitY=0.3333333333333333;exitDx=0;exitDy=0;exitPerimeter=0;" edge="1" parent="1" source="cEwxzYOVinrBvs5fxJHt-1" target="cEwxzYOVinrBvs5fxJHt-5">
          <mxGeometry width="50" height="50" relative="1" as="geometry">
            <mxPoint x="100" y="235" as="sourcePoint" />
            <mxPoint x="200" y="275" as="targetPoint" />
          </mxGeometry>
        </mxCell>
        <mxCell id="cEwxzYOVinrBvs5fxJHt-11" value="Review trading history" style="ellipse;whiteSpace=wrap;html=1;" vertex="1" parent="1">
          <mxGeometry x="180" y="390" width="90" height="60" as="geometry" />
        </mxCell>
        <mxCell id="cEwxzYOVinrBvs5fxJHt-13" value="" style="endArrow=none;html=1;rounded=0;entryX=0;entryY=0;entryDx=0;entryDy=0;exitX=1;exitY=0.3333333333333333;exitDx=0;exitDy=0;exitPerimeter=0;" edge="1" parent="1" source="cEwxzYOVinrBvs5fxJHt-1" target="cEwxzYOVinrBvs5fxJHt-11">
          <mxGeometry width="50" height="50" relative="1" as="geometry">
            <mxPoint x="100" y="235" as="sourcePoint" />
            <mxPoint x="200" y="275" as="targetPoint" />
          </mxGeometry>
        </mxCell>
        <mxCell id="cEwxzYOVinrBvs5fxJHt-16" value="Admin" style="shape=umlActor;verticalLabelPosition=bottom;verticalAlign=top;html=1;" vertex="1" parent="1">
          <mxGeometry x="60" y="450" width="30" height="60" as="geometry" />
        </mxCell>
        <mxCell id="cEwxzYOVinrBvs5fxJHt-17" value="Manage users&#39; accounts" style="ellipse;whiteSpace=wrap;html=1;" vertex="1" parent="1">
          <mxGeometry x="185" y="460" width="90" height="60" as="geometry" />
        </mxCell>
        <mxCell id="cEwxzYOVinrBvs5fxJHt-19" value="Monitor market" style="ellipse;whiteSpace=wrap;html=1;" vertex="1" parent="1">
          <mxGeometry x="335" y="430" width="90" height="60" as="geometry" />
        </mxCell>
        <mxCell id="cEwxzYOVinrBvs5fxJHt-20" value="" style="endArrow=none;html=1;rounded=0;entryX=0;entryY=0.5;entryDx=0;entryDy=0;exitX=1;exitY=0.3333333333333333;exitDx=0;exitDy=0;exitPerimeter=0;" edge="1" parent="1" source="cEwxzYOVinrBvs5fxJHt-1" target="cEwxzYOVinrBvs5fxJHt-19">
          <mxGeometry width="50" height="50" relative="1" as="geometry">
            <mxPoint x="90" y="230" as="sourcePoint" />
            <mxPoint x="200" y="345" as="targetPoint" />
          </mxGeometry>
        </mxCell>
        <mxCell id="cEwxzYOVinrBvs5fxJHt-21" value="Trading platform&lt;br&gt;" style="shape=umlActor;verticalLabelPosition=bottom;verticalAlign=top;html=1;" vertex="1" parent="1">
          <mxGeometry x="610" y="350" width="30" height="60" as="geometry" />
        </mxCell>
        <mxCell id="cEwxzYOVinrBvs5fxJHt-24" value="" style="endArrow=none;html=1;rounded=0;exitX=1;exitY=0.5;exitDx=0;exitDy=0;entryX=0;entryY=0.3333333333333333;entryDx=0;entryDy=0;entryPerimeter=0;" edge="1" parent="1" source="cEwxzYOVinrBvs5fxJHt-4" target="cEwxzYOVinrBvs5fxJHt-21">
          <mxGeometry width="50" height="50" relative="1" as="geometry">
            <mxPoint x="650" y="460" as="sourcePoint" />
            <mxPoint x="700" y="410" as="targetPoint" />
          </mxGeometry>
        </mxCell>
        <mxCell id="cEwxzYOVinrBvs5fxJHt-25" value="" style="endArrow=none;html=1;rounded=0;entryX=0;entryY=0.5;entryDx=0;entryDy=0;exitX=1;exitY=0.3333333333333333;exitDx=0;exitDy=0;exitPerimeter=0;" edge="1" parent="1" source="cEwxzYOVinrBvs5fxJHt-16" target="cEwxzYOVinrBvs5fxJHt-17">
          <mxGeometry width="50" height="50" relative="1" as="geometry">
            <mxPoint x="60" y="430" as="sourcePoint" />
            <mxPoint x="110" y="380" as="targetPoint" />
          </mxGeometry>
        </mxCell>
        <mxCell id="cEwxzYOVinrBvs5fxJHt-26" value="" style="endArrow=none;html=1;rounded=0;exitX=1;exitY=0.5;exitDx=0;exitDy=0;entryX=0;entryY=0.3333333333333333;entryDx=0;entryDy=0;entryPerimeter=0;" edge="1" parent="1" source="cEwxzYOVinrBvs5fxJHt-19" target="cEwxzYOVinrBvs5fxJHt-21">
          <mxGeometry width="50" height="50" relative="1" as="geometry">
            <mxPoint x="280" y="350" as="sourcePoint" />
            <mxPoint x="330" y="300" as="targetPoint" />
          </mxGeometry>
        </mxCell>
        <mxCell id="cEwxzYOVinrBvs5fxJHt-30" style="edgeStyle=orthogonalEdgeStyle;rounded=0;orthogonalLoop=1;jettySize=auto;html=1;entryX=0.5;entryY=0;entryDx=0;entryDy=0;dashed=1;exitX=0.5;exitY=1;exitDx=0;exitDy=0;" edge="1" parent="1" source="cEwxzYOVinrBvs5fxJHt-27" target="cEwxzYOVinrBvs5fxJHt-4">
          <mxGeometry relative="1" as="geometry">
            <Array as="points">
              <mxPoint x="375" y="240" />
            </Array>
          </mxGeometry>
        </mxCell>
        <mxCell id="cEwxzYOVinrBvs5fxJHt-27" value="Toggle Bot Trading" style="ellipse;whiteSpace=wrap;html=1;" vertex="1" parent="1">
          <mxGeometry x="330" y="180" width="90" height="60" as="geometry" />
        </mxCell>
        <mxCell id="cEwxzYOVinrBvs5fxJHt-29" value="" style="endArrow=none;html=1;rounded=0;exitX=1;exitY=0.3333333333333333;exitDx=0;exitDy=0;exitPerimeter=0;entryX=0;entryY=0.5;entryDx=0;entryDy=0;" edge="1" parent="1" source="cEwxzYOVinrBvs5fxJHt-1" target="cEwxzYOVinrBvs5fxJHt-27">
          <mxGeometry width="50" height="50" relative="1" as="geometry">
            <mxPoint x="90" y="230" as="sourcePoint" />
            <mxPoint x="330" y="300" as="targetPoint" />
          </mxGeometry>
        </mxCell>
        <mxCell id="cEwxzYOVinrBvs5fxJHt-34" value="&amp;lt;&amp;lt;include&amp;gt;&amp;gt;" style="edgeLabel;html=1;align=center;verticalAlign=middle;resizable=0;points=[];" vertex="1" connectable="0" parent="1">
          <mxGeometry x="369.9967211417831" y="265" as="geometry">
            <mxPoint x="3" y="-5" as="offset" />
          </mxGeometry>
        </mxCell>
      </root>
    </mxGraphModel>
  </diagram>
</mxfile>
